<?xml version="1.0" standalone="no"?>
<!DOCTYPE svg PUBLIC "-//W3C//DTD SVG 20010904//EN"
 "http://www.w3.org/TR/2001/REC-SVG-20010904/DTD/svg10.dtd">
<svg version="1.0" xmlns="http://www.w3.org/2000/svg"
 width="512.000000pt" height="512.000000pt" viewBox="0 0 512.000000 512.000000"
 preserveAspectRatio="xMidYMid meet">
<metadata>
Created by potrace 1.14, written by Peter Selinger 2001-2017
</metadata>
<g transform="translate(0.000000,512.000000) scale(0.100000,-0.100000)"
fill="#000000" stroke="none">
<path d="M2379 5116 c-2 -2 -38 -6 -79 -10 -64 -6 -213 -30 -315 -51 -124 -26
-334 -97 -478 -161 -745 -335 -1299 -1031 -1456 -1829 -40 -200 -46 -267 -45
-515 0 -184 3 -241 19 -345 3 -16 7 -43 9 -60 8 -58 38 -191 61 -275 197 -702
676 -1279 1335 -1606 200 -99 500 -198 695 -229 167 -26 269 -33 480 -30 261
3 417 24 650 90 941 265 1650 1046 1826 2010 29 160 34 235 34 480 -1 216 -11
330 -42 465 -8 36 -17 76 -19 90 -3 14 -16 64 -30 112 -142 509 -445 968 -855
1298 -93 75 -272 200 -286 200 -4 0 -14 6 -22 14 -20 18 -257 137 -331 166
-153 61 -375 126 -494 144 -21 4 -41 8 -45 10 -3 2 -35 7 -71 11 -36 4 -76 10
-90 12 -31 5 -446 13 -451 9z"/>
</g>
</svg>
